<svg xmlns="http://www.w3.org/2000/svg" viewBox="0 0 100 87.24"><title>アセット 31</title><path d="M99.89,40.14a5.38,5.38,0,0,0-3.3-3.88L90.7,34V40l1.11.44a1.59,1.59,0,0,1,.55,2.62L54.52,80.94a2.7,2.7,0,0,1-2.86.6L8.16,64.62C5.74,63.7,5.73,60.41,6,56.15c.26-3.69,1.45-8.53,5.56-8.3l37.54,14.6a9.08,9.08,0,0,0,9.73-2.06L95.15,23.87a5.34,5.34,0,0,0-1.85-8.74L56,.62a9.07,9.07,0,0,0-9.73,2.06L4.23,45C.9,47.72,0,52.82,0,57.35s.3,10,5.44,12.09l-1.21-.29L49.16,86.63a9.09,9.09,0,0,0,9.71-2L98.44,45A5.37,5.37,0,0,0,99.89,40.14Z" style="fill:#49b9bf"/></svg>