<?xml version="1.0" encoding="utf-8"?>
<!-- Generator: Adobe Illustrator 22.0.1, SVG Export Plug-In . SVG Version: 6.00 Build 0)  -->
<svg version="1.1" id="レイヤー_1" xmlns="http://www.w3.org/2000/svg" xmlns:xlink="http://www.w3.org/1999/xlink" x="0px"
	 y="0px" viewBox="0 0 787.5 553.3" style="enable-background:new 0 0 787.5 553.3;" xml:space="preserve">
<style type="text/css">
	.st0{fill-rule:evenodd;clip-rule:evenodd;fill:#C17119;}
	.st1{fill-rule:evenodd;clip-rule:evenodd;fill:#5D391A;}
	.st2{fill-rule:evenodd;clip-rule:evenodd;fill:#FCCC00;}
</style>
<g>
	<g>
		<path class="st0" d="M330.3,8.4h125.6c61.3,0,111.4,50.1,111.4,111.4v125.6c0,61.3-50.1,111.4-111.4,111.4H330.3
			c-61.3,0-111.4-50.1-111.4-111.4V119.8C218.9,58.6,269,8.4,330.3,8.4z"/>
		<path class="st1" d="M330.3,1.5h125.6c32.5,0,62.1,13.3,83.6,34.8c21.4,21.4,34.8,51,34.8,83.6v125.6c0,32.5-13.3,62.1-34.8,83.6
			c-21.4,21.4-51,34.8-83.6,34.8H330.3c-32.5,0-62.1-13.3-83.6-34.8c-21.4-21.4-34.8-51-34.8-83.6V119.8c0-32.5,13.3-62.1,34.8-83.6
			C268.1,14.8,297.7,1.5,330.3,1.5L330.3,1.5z M455.9,15.3H330.3c-28.7,0-54.9,11.8-73.8,30.7c-18.9,18.9-30.7,45.1-30.7,73.8v125.6
			c0,28.7,11.8,54.9,30.7,73.8c18.9,18.9,45.1,30.7,73.8,30.7h125.6c28.7,0,54.9-11.8,73.8-30.7c18.9-18.9,30.7-45.1,30.7-73.8
			V119.8c0-28.7-11.8-54.9-30.7-73.8C510.7,27.1,484.6,15.3,455.9,15.3z"/>
		<path class="st1" d="M393.5,285.1H424c2.9,0,5.3-1.7,6.3-4.3l11.5-29.6c0.1-0.4,0.3-0.7,0.5-1l0.3-0.5c0.2-0.4,0.4-0.7,0.7-1
			l19-21.8c0.5-0.6,0.8-1.1,1.1-1.8l12.3-29c0.2-0.4,0.3-0.7,0.5-1l0.3-0.5c0.2-0.3,0.4-0.6,0.7-0.9l34.3-37.8
			c1.9-2.1,2.3-5,1.1-7.6l-31.9-64.4c-1.2-2.4-3.4-3.8-6.1-3.8l-22,0c-1.4,0-2.7,0.4-3.8,1.2l-17.4,12c-0.6,0.4-1.1,0.7-1.8,0.9
			l-0.9,0.3c-0.7,0.2-1.3,0.3-2.1,0.3h-32.9h-34.1c-0.7,0-1.4-0.1-2.1-0.3l-0.9-0.3c-0.7-0.2-1.2-0.5-1.8-0.9l-17.4-12
			c-1.2-0.8-2.4-1.2-3.8-1.2l-22,0c-2.6,0-4.9,1.4-6.1,3.8l-31.9,64.4c-1.3,2.6-0.9,5.5,1.1,7.6l34.3,37.8c0.3,0.3,0.5,0.6,0.7,0.9
			l0.3,0.5c0.2,0.3,0.4,0.6,0.5,1l12.3,29c0.3,0.7,0.7,1.3,1.2,1.8l18.6,21.1c0.3,0.3,0.5,0.6,0.7,1l0.3,0.5c0.2,0.3,0.4,0.7,0.5,1
			l11.7,30.2c1,2.7,3.5,4.3,6.3,4.3H393.5L393.5,285.1z M430.9,295.3h-37.5h-38.3c-2.9,0-5.3-1.7-6.3-4.3l-13.7-35.3
			c-0.3-0.8-0.7-1.4-1.2-2l-18.6-21.1c-0.3-0.3-0.5-0.6-0.7-0.9l-0.3-0.4c-0.2-0.3-0.3-0.6-0.5-0.9l-12.3-29
			c-0.3-0.7-0.7-1.3-1.2-1.9l-38-41.8c-1.9-2.1-2.3-5-1.1-7.6l37.8-76.2c1.2-2.4,3.4-3.8,6.1-3.8l31,0c0.7,0,1.3,0.1,2,0.3l0.9,0.3
			c0.7,0.2,1.3,0.5,1.8,0.9l17.3,12c1.2,0.8,2.4,1.2,3.9,1.2h31.5h30.2c1.4,0,2.7-0.4,3.9-1.2l17.3-12c0.6-0.4,1.2-0.7,1.8-0.9
			l0.9-0.3c0.7-0.2,1.3-0.3,2-0.3l31,0c2.6,0,4.9,1.4,6.1,3.8l37.8,76.2c1.3,2.6,0.9,5.5-1.1,7.6l-38,41.8c-0.5,0.6-0.9,1.2-1.2,1.9
			l-12.3,29c-0.1,0.3-0.3,0.6-0.5,0.9l-0.3,0.4c-0.2,0.3-0.4,0.6-0.7,0.9l-18.9,21.7c-0.5,0.6-0.9,1.2-1.2,2l-13.4,34.7
			C436.2,293.6,433.8,295.3,430.9,295.3z"/>
		<path class="st1" d="M446.5,257.8l-50.7-22c-1.8-0.8-3.6-0.8-5.3,0l-51,21.5l-1.3-3.1c-1.5-3.4,0.2-7.4,3.6-8.9l33.2-14
			c2.1-0.9,3.6-2.7,4-4.9c0.4-2.3-0.2-4.5-1.9-6.1l-14.5-14.5c-1.3-1.3-2-2.9-2-4.8l0-6.8c0-3.1,2-5.8,5.1-6.6l25.5-6.6
			c1.2-0.3,3.1-0.3,4.3,0l25.2,6.6c3,0.8,5.1,3.4,5.1,6.6l0,6.8c0,1.9-0.7,3.5-2,4.8l-14.6,14.6c-1.6,1.6-2.3,3.8-1.9,6.1
			c0.4,2.3,1.8,4,4,5l33.1,14.4c1.7,0.7,2.9,2,3.6,3.7c0.7,1.7,0.7,3.5-0.1,5.2L446.5,257.8L446.5,257.8z M398,217.1l17.6-17.6
			l0-2.8l-20.5-5.4c-1.2-0.3-2.3-0.3-3.4,0l-20.9,5.4v2.8l17.6,17.6C391.1,219.7,395.4,219.7,398,217.1z"/>
		<path class="st2" d="M341.9,245.2l33.2-14c2.1-0.9,3.6-2.7,4-4.9c0.4-2.3-0.2-4.5-1.9-6.1l-14.5-14.5c-1.3-1.3-2-2.9-2-4.8l0-6.8
			c0-3.1,2-5.8,5.1-6.6l25.5-6.6c1.2-0.3,3.1-0.3,4.3,0l25.2,6.6c3,0.8,5.1,3.4,5.1,6.6l0,6.8c0,1.9-0.7,3.5-2,4.8l-14.6,14.6
			c-1.6,1.6-2.3,3.8-1.9,6.1c0.4,2.3,1.8,4,4,5l33.1,14.4c0.3,0.2,0.7,0.3,1,0.5l16.9-19.4c0.5-0.6,0.8-1.1,1.1-1.8l12.3-29
			c0.2-0.4,0.3-0.7,0.5-1l0.3-0.5c0.2-0.3,0.4-0.6,0.7-0.9l34.3-37.8c1.9-2.1,2.3-5,1.1-7.6l-31.9-64.4c-1.2-2.4-3.4-3.8-6.1-3.8
			l-22,0c-1.4,0-2.7,0.4-3.8,1.2l-17.4,12c-0.6,0.4-1.1,0.7-1.8,0.9l-0.9,0.3c-0.7,0.2-1.3,0.3-2.1,0.3h-32.9h-34.1
			c-0.7,0-1.4-0.1-2.1-0.3l-0.9-0.3c-0.7-0.2-1.2-0.5-1.8-0.9l-17.4-12c-1.2-0.8-2.4-1.2-3.8-1.2l-22,0c-2.6,0-4.9,1.4-6.1,3.8
			l-31.9,64.4c-1.3,2.6-0.9,5.5,1.1,7.6l34.3,37.8c0.3,0.3,0.5,0.6,0.7,0.9l0.3,0.5c0.2,0.3,0.4,0.6,0.5,1l12.3,29
			c0.3,0.7,0.7,1.3,1.2,1.8l16.8,19C341,245.6,341.4,245.4,341.9,245.2z"/>
		<path class="st0" d="M415.6,196.7l-20.5-5.4c-1.2-0.3-2.3-0.3-3.4,0l-20.9,5.4v2.8l17.6,17.6c2.6,2.6,6.9,2.6,9.6,0l17.6-17.6
			L415.6,196.7z"/>
		<path class="st2" d="M395.9,235.8c-1.8-0.8-3.6-0.8-5.3,0l-44.9,18.9l10.1,26.1c1,2.7,3.5,4.3,6.3,4.3h31.4H424
			c2.9,0,5.3-1.7,6.3-4.3l9.9-25.7L395.9,235.8z"/>
		<g>
			
				<ellipse transform="matrix(0.9731 -0.2305 0.2305 0.9731 -20.357 105.7731)" class="st1" cx="442.4" cy="140" rx="13.1" ry="13.1"/>
			
				<ellipse transform="matrix(0.9731 -0.2305 0.2305 0.9731 -23.0178 83.001)" class="st1" cx="343.7" cy="140" rx="13.1" ry="13.1"/>
		</g>
	</g>
	<path class="st1" d="M76.5,460.8L61,476.4c-6.3-6.3-12-9.4-17.2-9.4c-2.8,0-5,0.6-6.6,1.8c-1.6,1.2-2.4,2.7-2.4,4.4
		c0,1.4,0.5,2.6,1.5,3.7c1,1.1,3.5,2.7,7.5,4.7l9.2,4.6c9.7,4.7,16.4,9.6,20,14.6c3.6,5,5.4,10.8,5.4,17.4c0,8.9-3.3,16.3-9.8,22.2
		c-6.5,5.9-15.3,8.9-26.3,8.9c-14.6,0-26.3-5.7-35-17.1l15.5-16.9c3,3.4,6.4,6.2,10.4,8.3c4,2.1,7.5,3.2,10.6,3.2c3.3,0,6-0.8,8-2.4
		c2-1.6,3.1-3.4,3.1-5.5c0-3.9-3.6-7.6-11-11.3l-8.5-4.2c-16.2-8.1-24.3-18.3-24.3-30.6c0-7.9,3.1-14.7,9.2-20.3
		c6.1-5.6,13.9-8.4,23.4-8.4c6.5,0,12.6,1.4,18.4,4.3C67.7,451.3,72.6,455.4,76.5,460.8L76.5,460.8z M172.4,446.6h25.1v100.2h-25.1
		v-10.7c-4.9,4.7-9.8,8-14.8,10c-4.9,2-10.3,3.1-16.1,3.1c-13,0-24.2-5-33.7-15c-9.5-10-14.2-22.5-14.2-37.3
		c0-15.4,4.6-28.1,13.7-38c9.2-9.8,20.3-14.8,33.3-14.8c6,0,11.7,1.1,17,3.4c5.3,2.2,10.2,5.6,14.7,10.1V446.6L172.4,446.6z
		 M146,467.2c-7.8,0-14.3,2.7-19.4,8.2c-5.2,5.5-7.7,12.5-7.7,21.1c0,8.6,2.6,15.8,7.9,21.4c5.3,5.6,11.7,8.4,19.4,8.4
		c7.9,0,14.5-2.7,19.7-8.2c5.2-5.5,7.8-12.7,7.8-21.6c0-8.7-2.6-15.8-7.8-21.2C160.5,469.9,153.9,467.2,146,467.2L146,467.2z
		 M212.2,446.6h25.7l25.2,59.1l25.4-59.1h25.5l-43.1,100.2h-16L212.2,446.6L212.2,446.6z M402.7,446.6h25.1v100.2h-25.1v-10.7
		c-4.9,4.7-9.8,8-14.8,10c-4.9,2-10.3,3.1-16.1,3.1c-13,0-24.2-5-33.7-15c-9.5-10-14.2-22.5-14.2-37.3c0-15.4,4.6-28.1,13.7-38
		c9.2-9.8,20.3-14.8,33.3-14.8c6,0,11.7,1.1,17,3.4c5.3,2.2,10.2,5.6,14.7,10.1V446.6L402.7,446.6z M376.2,467.2
		c-7.8,0-14.3,2.7-19.4,8.2c-5.2,5.5-7.7,12.5-7.7,21.1c0,8.6,2.6,15.8,7.9,21.4c5.3,5.6,11.7,8.4,19.4,8.4c7.9,0,14.5-2.7,19.7-8.2
		c5.2-5.5,7.8-12.7,7.8-21.6c0-8.7-2.6-15.8-7.8-21.2C390.8,469.9,384.2,467.2,376.2,467.2L376.2,467.2z M453.1,446.6h25.1v10.3
		c5.7-4.8,10.9-8.1,15.5-10c4.6-1.9,9.4-2.8,14.2-2.8c9.9,0,18.4,3.5,25.3,10.4c5.8,5.9,8.7,14.6,8.7,26.1v66.1H517V503
		c0-12-0.5-19.9-1.6-23.8c-1.1-3.9-3-6.9-5.6-9c-2.7-2-6-3.1-9.9-3.1c-5.1,0-9.5,1.7-13.1,5.1c-3.6,3.4-6.2,8.1-7.6,14.1
		c-0.7,3.1-1.1,9.9-1.1,20.3v40.1h-25.1V446.6L453.1,446.6z M566.3,446.6h25.1v10.3c5.7-4.8,10.9-8.1,15.5-10
		c4.6-1.9,9.4-2.8,14.2-2.8c9.9,0,18.4,3.5,25.3,10.4c5.8,5.9,8.7,14.6,8.7,26.1v66.1h-24.9V503c0-12-0.5-19.9-1.6-23.8
		c-1.1-3.9-3-6.9-5.6-9c-2.7-2-6-3.1-9.9-3.1c-5.1,0-9.5,1.7-13.1,5.1c-3.6,3.4-6.2,8.1-7.6,14.1c-0.7,3.1-1.1,9.9-1.1,20.3v40.1
		h-25.1V446.6L566.3,446.6z M753.7,446.6h25.1v100.2h-25.1v-10.7c-4.9,4.7-9.8,8-14.8,10c-4.9,2-10.3,3.1-16.1,3.1
		c-13,0-24.2-5-33.7-15c-9.5-10-14.2-22.5-14.2-37.3c0-15.4,4.6-28.1,13.7-38c9.2-9.8,20.3-14.8,33.3-14.8c6,0,11.7,1.1,17,3.4
		c5.3,2.2,10.2,5.6,14.7,10.1V446.6L753.7,446.6z M727.3,467.2c-7.8,0-14.3,2.7-19.4,8.2c-5.2,5.5-7.7,12.5-7.7,21.1
		c0,8.6,2.6,15.8,7.9,21.4c5.3,5.6,11.7,8.4,19.4,8.4c7.9,0,14.5-2.7,19.7-8.2c5.2-5.5,7.8-12.7,7.8-21.6c0-8.7-2.6-15.8-7.8-21.2
		C741.8,469.9,735.2,467.2,727.3,467.2z"/>
</g>
</svg>
