<svg xmlns="http://www.w3.org/2000/svg" viewBox="0 0 151 195"><title>img_about_03</title><path d="M151,75.5C151,117.2,75.5,195,75.5,195S0,117.2,0,75.5a75.5,75.5,0,0,1,151,0Z" style="fill:#fff"/><path d="M106.28,93.36a4.36,4.36,0,0,0,4.47-4.23V37.78a4.35,4.35,0,0,0-4.47-4.23H70.12a4.35,4.35,0,0,0-4.47,4.23V87.51a5.87,5.87,0,0,0,5.89,5.87Z" style="fill:#f7d443"/><path d="M54.8,63.18c4.6,0,8.45-4,8.58-9.14.15-5.29-3.7-9.7-8.58-9.7s-8.73,4.41-8.59,9.7C46.35,59.15,50.19,63.18,54.8,63.18Z" style="fill:#0092d7"/><path d="M95.1,39.68H65.65V37.13a3.58,3.58,0,0,1,3.58-3.58h38a3.57,3.57,0,0,1,3.57,3.58v2.55h-5.48" style="fill:#fff"/><path d="M95.1,39.68H65.65V37.13a3.58,3.58,0,0,1,3.58-3.58h38a3.57,3.57,0,0,1,3.57,3.58v2.55h-5.48" style="fill:none;stroke:#0a5e7f;stroke-linecap:round;stroke-miterlimit:10;stroke-width:1.94213327105264px"/><line x1="101.85" y1="39.68" x2="97.43" y2="39.68" style="fill:none;stroke:#0a5e7f;stroke-linecap:round;stroke-miterlimit:10;stroke-width:1.94213327105264px"/><path d="M54.8,63.18c4.6,0,8.45-4,8.58-9.14.15-5.29-3.7-9.7-8.58-9.7s-8.73,4.41-8.59,9.7C46.35,59.15,50.19,63.18,54.8,63.18Z" style="fill:none;stroke:#0a5e7f;stroke-linecap:round;stroke-miterlimit:10;stroke-width:1.94213327105264px"/><path d="M65.65,56.14V37.78a4.35,4.35,0,0,1,4.47-4.23h36.16a4.35,4.35,0,0,1,4.47,4.23V89.13a4.36,4.36,0,0,1-4.47,4.23H79.44" style="fill:none;stroke:#0a5e7f;stroke-linecap:round;stroke-miterlimit:10;stroke-width:1.94213327105264px"/><line x1="65.65" y1="63.45" x2="65.65" y2="59.74" style="fill:none;stroke:#0a5e7f;stroke-linecap:round;stroke-miterlimit:10;stroke-width:1.94213327105264px"/><line x1="87.5" y1="93.4" x2="87.5" y2="124.75" style="fill:none;stroke:#0a5e7f;stroke-linecap:round;stroke-miterlimit:10;stroke-width:1.94213327105264px"/><line x1="71.99" y1="125.26" x2="101.85" y2="125.26" style="fill:none;stroke:#0a5e7f;stroke-linecap:round;stroke-miterlimit:10;stroke-width:1.94213327105264px"/><polygon points="94.31 57.18 82.01 57.18 74.31 64.87 88.16 77.31 102 64.87 94.31 57.18" style="fill:#fff"/><polyline points="74 64.87 83.09 66.96 93.58 66.96 101.97 64.87" style="fill:none;stroke:#0a5e7f;stroke-linecap:round;stroke-linejoin:round;stroke-width:1.94213327105264px"/><polyline points="82.39 66.96 87.98 77.45 93.58 67.24" style="fill:none;stroke:#0a5e7f;stroke-linecap:round;stroke-linejoin:round;stroke-width:1.94213327105264px"/><polyline points="81.69 57.18 85.19 58.57 91.48 58.57 94.28 57.18" style="fill:none;stroke:#0a5e7f;stroke-linecap:round;stroke-linejoin:round;stroke-width:1.94213327105264px"/><line x1="85.19" y1="58.57" x2="83.09" y2="64.17" style="fill:none;stroke:#0a5e7f;stroke-linecap:round;stroke-linejoin:round;stroke-width:1.94213327105264px"/><line x1="92.18" y1="62.77" x2="93.58" y2="66.96" style="fill:none;stroke:#0a5e7f;stroke-linecap:round;stroke-linejoin:round;stroke-width:1.94213327105264px"/><line x1="90.78" y1="58.57" x2="91.35" y2="60.27" style="fill:none;stroke:#0a5e7f;stroke-linecap:round;stroke-linejoin:round;stroke-width:1.94213327105264px"/><path d="M75.6,72.76l-2.77-2.17a1.89,1.89,0,0,0-2.54.21l-1.67,1.87-.06-2.52a5,5,0,0,0-4.86-5.06h-.78a1.5,1.5,0,0,0-1.22.65L56.57,73,56,67.68l.88-1.47c.14-.23-.07-.51-.39-.51H53.12c-.33,0-.54.28-.39.51l.87,1.47L53,73l-5.14-7.28a1.48,1.48,0,0,0-1.22-.65h-.78A5,5,0,0,0,41,70.15l-.28,22.66a1.69,1.69,0,0,0,1.68,1.72h4.21V123.4A1.34,1.34,0,0,0,48,124.75H61.6A1.34,1.34,0,0,0,63,123.4V84.91h4.22a1.69,1.69,0,0,0,1.67-1.72v-.26l7-7.79A1.62,1.62,0,0,0,75.6,72.76Z" style="fill:#0092d7"/><path d="M75.6,72.76l-2.77-2.17a1.89,1.89,0,0,0-2.54.21l-1.67,1.87-.06-2.52a5,5,0,0,0-4.86-5.06h-.78a1.5,1.5,0,0,0-1.22.65L56.57,73,56,67.68l.88-1.47c.14-.23-.07-.51-.39-.51H53.12c-.33,0-.54.28-.39.51l.87,1.47L53,73l-5.14-7.28a1.48,1.48,0,0,0-1.22-.65h-.78A5,5,0,0,0,41,70.15l-.28,22.66a1.69,1.69,0,0,0,1.68,1.72h4.21V123.4A1.34,1.34,0,0,0,48,124.75H61.6A1.34,1.34,0,0,0,63,123.4V84.91h4.22a2.52,2.52,0,0,0,1.58-.61l7.07-9.16A1.62,1.62,0,0,0,75.6,72.76Z" style="fill:none;stroke:#0a5e7f;stroke-linecap:round;stroke-linejoin:round;stroke-width:1.94213327105264px"/><line x1="71.81" y1="74.87" x2="80.56" y2="63.11" style="fill:none;stroke:#0a5e7f;stroke-linecap:round;stroke-miterlimit:10;stroke-width:2.33182888529796px"/><path d="M94.31,57.18,102,64.87,88.16,77.31,74.32,64.87,82,57.18h12.3m0-2H82a2,2,0,0,0-1.38.57l-7.69,7.69a2,2,0,0,0-.57,1.43A2,2,0,0,0,73,66.31L86.86,78.75a1.94,1.94,0,0,0,2.6,0L103.3,66.31a2,2,0,0,0,.64-1.39,1.93,1.93,0,0,0-.57-1.43L95.68,55.8a2,2,0,0,0-1.37-.57Z" style="fill:#0a5e7f"/></svg>