<svg xmlns="http://www.w3.org/2000/svg" viewBox="0 0 151 195"><title>img_about_01</title><path d="M151,75.5C151,117.2,75.5,195,75.5,195S0,117.2,0,75.5a75.5,75.5,0,0,1,151,0Z" style="fill:#fff"/><path d="M74.77,40.78v16.6a3.41,3.41,0,0,1-3.41,3.41H67.78v9a.31.31,0,0,1-.57.16l-5.37-9.12H44.13v9a.31.31,0,0,1-.57.16l-5.37-9.12H20.48v9a.31.31,0,0,1-.57.16l-5.37-9.12H11a3.41,3.41,0,0,1-3.41-3.41V40.78A3.41,3.41,0,0,1,11,37.37h60.4A3.41,3.41,0,0,1,74.77,40.78Z" style="fill:#f7d443"/><path d="M74.77,40.78H7.55A3.41,3.41,0,0,1,11,37.37h60.4A3.41,3.41,0,0,1,74.77,40.78Z" style="fill:#fff"/><path d="M24.88,99.26h-.63a1.25,1.25,0,0,0-1,.53l-4.17,5.92-.47-4.35.72-1.19c.11-.19-.06-.42-.32-.42H16.27c-.26,0-.43.23-.31.42l.7,1.19-.46,4.35L12,99.79a1.25,1.25,0,0,0-1-.53H10.4a4.09,4.09,0,0,0-3.95,4.11l-.23,10.06a1.37,1.37,0,0,0,1.36,1.4h17" style="fill:#0092d7"/><path d="M17.64,97.41c3.75,0,6.87-3.28,7-7.44s-3-7.89-7-7.89-7.1,3.59-7,7.89S13.9,97.41,17.64,97.41Z" style="fill:#0092d7"/><path d="M57.55,99.26h.63a1.25,1.25,0,0,1,1,.53l4.17,5.92.47-4.35-.71-1.19c-.12-.19,0-.42.31-.42h2.74c.26,0,.43.23.31.42l-.7,1.19.46,4.35,4.17-5.92a1.25,1.25,0,0,1,1-.53H72a4.11,4.11,0,0,1,4,4.11l.23,10.06a1.39,1.39,0,0,1-1.37,1.4h-17" style="fill:#0092d7"/><path d="M64.79,97.41c-3.75,0-6.87-3.28-7-7.44s3-7.89,7-7.89,7.1,3.59,7,7.89S68.54,97.41,64.79,97.41Z" style="fill:#0092d7"/><path d="M24.88,99.26h-.63a1.25,1.25,0,0,0-1,.53l-4.17,5.92-.47-4.35.72-1.19c.11-.19-.06-.42-.32-.42H16.27c-.26,0-.43.23-.31.42l.7,1.19-.46,4.35L12,99.79a1.25,1.25,0,0,0-1-.53H10.4a4.09,4.09,0,0,0-3.95,4.11l-.23,10.06a1.37,1.37,0,0,0,1.36,1.4h17" style="fill:none;stroke:#0a5e7f;stroke-linecap:round;stroke-linejoin:round;stroke-width:1.94213327105264px"/><path d="M17.64,97.41c3.75,0,6.87-3.28,7-7.44s-3-7.89-7-7.89-7.1,3.59-7,7.89S13.9,97.41,17.64,97.41Z" style="fill:none;stroke:#0a5e7f;stroke-linecap:round;stroke-miterlimit:10;stroke-width:1.94213327105264px"/><path d="M57.55,99.26h.63a1.25,1.25,0,0,1,1,.53l4.17,5.92.47-4.35-.71-1.19c-.12-.19,0-.42.31-.42h2.74c.26,0,.43.23.31.42l-.7,1.19.46,4.35,4.17-5.92a1.25,1.25,0,0,1,1-.53H72a4.11,4.11,0,0,1,4,4.11l.23,10.06a1.39,1.39,0,0,1-1.37,1.4h-17" style="fill:none;stroke:#0a5e7f;stroke-linecap:round;stroke-linejoin:round;stroke-width:1.94213327105264px"/><path d="M64.79,97.41c-3.75,0-6.87-3.28-7-7.44s3-7.89,7-7.89,7.1,3.59,7,7.89S68.54,97.41,64.79,97.41Z" style="fill:none;stroke:#0a5e7f;stroke-linecap:round;stroke-miterlimit:10;stroke-width:1.94213327105264px"/><path d="M55.5,113.09l-.29-12.52a5.1,5.1,0,0,0-4.92-5.12H49.5a1.51,1.51,0,0,0-1.23.65l-5.2,7.38-.59-5.42.89-1.48c.15-.24-.06-.52-.39-.52h-3.4c-.33,0-.54.28-.4.52l.88,1.48-.57,5.42-5.2-7.38a1.52,1.52,0,0,0-1.24-.65h-.79a5.11,5.11,0,0,0-4.92,5.12l-.28,12.52a1.7,1.7,0,0,0,1.69,1.74h25A1.71,1.71,0,0,0,55.5,113.09Z" style="fill:#0092d7"/><path d="M41.28,93.94c4.66,0,8.55-4.08,8.69-9.26.15-5.35-3.74-9.82-8.69-9.82s-8.84,4.47-8.7,9.82C32.72,89.86,36.61,93.94,41.28,93.94Z" style="fill:#0092d7"/><path d="M55.5,113.09l-.29-12.52a5.1,5.1,0,0,0-4.92-5.12H49.5a1.51,1.51,0,0,0-1.23.65l-5.2,7.38-.59-5.42.89-1.48c.15-.24-.06-.52-.39-.52h-3.4c-.33,0-.54.28-.4.52l.88,1.48-.57,5.42-5.2-7.38a1.52,1.52,0,0,0-1.24-.65h-.79a5.11,5.11,0,0,0-4.92,5.12l-.28,12.52a1.7,1.7,0,0,0,1.69,1.74h25A1.71,1.71,0,0,0,55.5,113.09Z" style="fill:none;stroke:#0a5e7f;stroke-linecap:round;stroke-linejoin:round;stroke-width:1.94213327105264px"/><path d="M41.28,93.94c4.66,0,8.55-4.08,8.69-9.26.15-5.35-3.74-9.82-8.69-9.82s-8.84,4.47-8.7,9.82C32.72,89.86,36.61,93.94,41.28,93.94Z" style="fill:none;stroke:#0a5e7f;stroke-linecap:round;stroke-miterlimit:10;stroke-width:1.94213327105264px"/><path d="M71.37,37.37H11a3.41,3.41,0,0,0-3.41,3.41v16.6A3.41,3.41,0,0,0,11,60.79h3.58l5.37,9.12a.31.31,0,0,0,.57-.16v-9H38.19l5.37,9.12a.31.31,0,0,0,.57-.16v-9H61.84l5.37,9.12a.31.31,0,0,0,.57-.16v-9h3.59a3.41,3.41,0,0,0,3.4-3.41V40.78A3.41,3.41,0,0,0,71.37,37.37Z" style="fill:none;stroke:#0a5e7f;stroke-linecap:round;stroke-miterlimit:10;stroke-width:1.94213327105264px"/><path d="M34.22,50.33a2,2,0,1,1-2-2A2,2,0,0,1,34.22,50.33Z" style="fill:#fff"/><path d="M43.3,50.33a2,2,0,1,1-2-2A2,2,0,0,1,43.3,50.33Z" style="fill:#fff"/><path d="M52.38,50.33a2,2,0,1,1-2-2A2,2,0,0,1,52.38,50.33Z" style="fill:#fff"/><line x1="114.78" y1="99.26" x2="114.78" y2="103.24" style="fill:none;stroke:#0a5e7f;stroke-linecap:round;stroke-miterlimit:10;stroke-width:1.5px"/><path d="M96.72,106.16v-1.93a1,1,0,0,1,1-1h34.9a1,1,0,0,1,1,1v1.93" style="fill:none;stroke:#0a5e7f;stroke-linecap:round;stroke-miterlimit:10;stroke-width:1.5px"/><path d="M124.35,39.73l-.18-8.1A3.3,3.3,0,0,0,121,28.32h-.51a1,1,0,0,0-.8.42l-3.36,4.77-.38-3.5.58-1c.09-.15,0-.33-.25-.33h-2.21c-.21,0-.34.18-.25.33l.57,1-.37,3.5-3.36-4.77a1,1,0,0,0-.8-.42h-.51a3.3,3.3,0,0,0-3.19,3.31l-.18,8.1a1.11,1.11,0,0,0,1.09,1.13h16.21A1.11,1.11,0,0,0,124.35,39.73Z" style="fill:#0092d7"/><path d="M115.16,25.06a4.82,4.82,0,0,0,4.58-4.88,4.62,4.62,0,1,0-9.17,0A4.82,4.82,0,0,0,115.16,25.06Z" style="fill:#0092d7"/><path d="M106.15,56.51l-.19-8.1a3.3,3.3,0,0,0-3.18-3.31h-.51a1,1,0,0,0-.8.43l-3.36,4.76-.38-3.5.57-1c.1-.15,0-.33-.25-.33h-2.2c-.21,0-.35.18-.26.33l.57,1-.37,3.5-3.36-4.76a1,1,0,0,0-.8-.43h-.51a3.29,3.29,0,0,0-3.18,3.31l-.19,8.1a1.12,1.12,0,0,0,1.1,1.13h16.2A1.12,1.12,0,0,0,106.15,56.51Z" style="fill:#f7d443"/><path d="M97,41.84A4.81,4.81,0,0,0,101.53,37a4.61,4.61,0,1,0-9.16,0A4.81,4.81,0,0,0,97,41.84Z" style="fill:#f7d443"/><path d="M142.75,56.33l-.18-8.1a3.3,3.3,0,0,0-3.19-3.31h-.51a1,1,0,0,0-.8.42l-3.36,4.77-.38-3.5.58-1c.09-.15,0-.34-.26-.34h-2.2c-.21,0-.35.19-.25.34l.57,1-.38,3.5L129,45.34a1,1,0,0,0-.8-.42h-.51a3.3,3.3,0,0,0-3.18,3.31l-.19,8.1a1.11,1.11,0,0,0,1.1,1.12h16.2A1.11,1.11,0,0,0,142.75,56.33Z" style="fill:#f8a642"/><path d="M133.55,41.66a4.81,4.81,0,0,0,4.58-4.88,4.61,4.61,0,1,0-9.16,0A4.81,4.81,0,0,0,133.55,41.66Z" style="fill:#f7d443"/><path d="M121,28.32a3.3,3.3,0,0,1,3.19,3.31l.18,8.1a1.11,1.11,0,0,1-1.09,1.13H107.05A1.11,1.11,0,0,1,106,39.73l.18-8.1a3.3,3.3,0,0,1,3.19-3.31h.51a1,1,0,0,1,.8.42L114,33.51l.37-3.5-.57-1c-.09-.15,0-.33.25-.33h2.21c.21,0,.34.18.25.33l-.58,1,.38,3.5,3.36-4.77a1,1,0,0,1,.8-.42H121m0-1.5h-.51a2.48,2.48,0,0,0-2,1.06l-.46.65a1.85,1.85,0,0,0-.17-.42,1.78,1.78,0,0,0-1.56-.89h-2.21a1.78,1.78,0,0,0-1.56.89,1.85,1.85,0,0,0-.17.42l-.46-.65a2.48,2.48,0,0,0-2-1.06h-.51a4.81,4.81,0,0,0-4.69,4.77l-.18,8.1a2.61,2.61,0,0,0,2.59,2.67h16.21a2.61,2.61,0,0,0,2.59-2.67l-.18-8.1A4.81,4.81,0,0,0,121,26.82Z" style="fill:#0a5e7f"/><path d="M115.16,25.06a4.82,4.82,0,0,0,4.58-4.88,4.62,4.62,0,1,0-9.17,0A4.82,4.82,0,0,0,115.16,25.06Z" style="fill:none;stroke:#0a5e7f;stroke-linecap:round;stroke-linejoin:round;stroke-width:1.5px"/><path d="M102.78,45.1A3.3,3.3,0,0,1,106,48.41l.19,8.1a1.12,1.12,0,0,1-1.1,1.13H88.85a1.12,1.12,0,0,1-1.1-1.13l.19-8.1a3.29,3.29,0,0,1,3.18-3.31h.51a1,1,0,0,1,.8.43l3.36,4.76.37-3.5-.57-1c-.09-.15,0-.33.26-.33h2.2c.21,0,.35.18.25.33l-.57,1,.38,3.5,3.36-4.76a1,1,0,0,1,.8-.43h.51m0-1.5h-.51a2.51,2.51,0,0,0-2,1.06l-.46.65a1.62,1.62,0,0,0-.17-.41,1.77,1.77,0,0,0-1.56-.9h-2.2a1.8,1.8,0,0,0-1.57.9,1.59,1.59,0,0,0-.16.41l-.47-.65a2.49,2.49,0,0,0-2-1.06h-.51a4.81,4.81,0,0,0-4.68,4.78l-.19,8.1a2.61,2.61,0,0,0,2.6,2.66h16.2a2.59,2.59,0,0,0,1.85-.79,2.63,2.63,0,0,0,.75-1.87l-.19-8.1a4.81,4.81,0,0,0-4.68-4.78Z" style="fill:#0a5e7f"/><path d="M97,41.84A4.81,4.81,0,0,0,101.53,37a4.61,4.61,0,1,0-9.16,0A4.81,4.81,0,0,0,97,41.84Z" style="fill:none;stroke:#0a5e7f;stroke-linecap:round;stroke-linejoin:round;stroke-width:1.5px"/><path d="M125.45,58.2a1.86,1.86,0,0,1-1.85-1.89l.19-8.1a4.05,4.05,0,0,1,3.93-4h.51a1.7,1.7,0,0,1,1.41.74l2.22,3.14.13-1.27-.44-.75a.93.93,0,0,1,0-1,1,1,0,0,1,.91-.52h2.2a1,1,0,0,1,.91.52.94.94,0,0,1,0,1l-.45.74.14,1.27,2.22-3.14a1.73,1.73,0,0,1,1.41-.74h.51a4.07,4.07,0,0,1,3.94,4l.18,8.1a1.86,1.86,0,0,1-1.85,1.89Z" style="fill:#f7d443"/><path d="M139.38,44.92a3.3,3.3,0,0,1,3.19,3.31l.18,8.1a1.11,1.11,0,0,1-1.1,1.12h-16.2a1.11,1.11,0,0,1-1.1-1.12l.19-8.1a3.3,3.3,0,0,1,3.18-3.31h.51a1,1,0,0,1,.8.42l3.36,4.77.38-3.5-.57-1c-.1-.15,0-.34.25-.34h2.2c.21,0,.35.19.26.34l-.58,1,.38,3.5,3.36-4.77a1,1,0,0,1,.8-.42h.51m0-1.5h-.51a2.48,2.48,0,0,0-2,1l-.47.66a1.65,1.65,0,0,0-.16-.42,1.81,1.81,0,0,0-1.57-.9h-2.2a1.79,1.79,0,0,0-1.56.9,1.85,1.85,0,0,0-.17.42l-.46-.65a2.48,2.48,0,0,0-2-1.06h-.51A4.81,4.81,0,0,0,123,48.19l-.19,8.1a2.64,2.64,0,0,0,.75,1.88,2.58,2.58,0,0,0,1.85.78h16.2a2.6,2.6,0,0,0,2.6-2.66l-.19-8.1a4.81,4.81,0,0,0-4.68-4.77Z" style="fill:#0a5e7f"/><path d="M133.55,41.66a4.81,4.81,0,0,0,4.58-4.88,4.61,4.61,0,1,0-9.16,0A4.81,4.81,0,0,0,133.55,41.66Z" style="fill:none;stroke:#0a5e7f;stroke-linecap:round;stroke-linejoin:round;stroke-width:1.5px"/><polyline points="129.84 66.08 133.89 69.37 139.33 62.27" style="fill:none;stroke:#0a5e7f;stroke-linecap:round;stroke-linejoin:round;stroke-width:1.94213327105264px"/><polyline points="92.2 66.08 96.25 69.37 101.7 62.27" style="fill:none;stroke:#0a5e7f;stroke-linecap:round;stroke-linejoin:round;stroke-width:1.94213327105264px"/><line x1="111.71" y1="56.54" x2="119.03" y2="48.16" style="fill:none;stroke:#0a5e7f;stroke-linecap:round;stroke-miterlimit:10;stroke-width:1.94213327105264px"/><line x1="119.03" y1="56.54" x2="111.71" y2="48.16" style="fill:none;stroke:#0a5e7f;stroke-linecap:round;stroke-miterlimit:10;stroke-width:1.94213327105264px"/><path d="M142.75,133.33l-.18-8.1a3.3,3.3,0,0,0-3.19-3.31h-.51a1,1,0,0,0-.8.42l-3.36,4.77-.38-3.5.58-1c.09-.15,0-.34-.26-.34h-2.2c-.21,0-.35.19-.25.34l.57,1-.38,3.5L129,122.34a1,1,0,0,0-.8-.42h-.51a3.3,3.3,0,0,0-3.18,3.31l-.19,8.1a1.11,1.11,0,0,0,1.1,1.12h16.2A1.11,1.11,0,0,0,142.75,133.33Z" style="fill:#f7d443"/><path d="M139.38,121.92a3.3,3.3,0,0,1,3.19,3.31l.18,8.1a1.11,1.11,0,0,1-1.1,1.12h-16.2a1.11,1.11,0,0,1-1.1-1.12l.19-8.1a3.3,3.3,0,0,1,3.18-3.31h.51a1,1,0,0,1,.8.42l3.36,4.77.38-3.5-.57-1c-.1-.15,0-.34.25-.34h2.2c.21,0,.35.19.26.34l-.58,1,.38,3.5,3.36-4.77a1,1,0,0,1,.8-.42h.51m0-1.5h-.51a2.48,2.48,0,0,0-2,1l-.47.66a1.65,1.65,0,0,0-.16-.42,1.81,1.81,0,0,0-1.57-.9h-2.2a1.79,1.79,0,0,0-1.56.9,1.85,1.85,0,0,0-.17.42l-.46-.65a2.48,2.48,0,0,0-2-1.06h-.51a4.81,4.81,0,0,0-4.68,4.77l-.19,8.1a2.64,2.64,0,0,0,.75,1.88,2.58,2.58,0,0,0,1.85.78h16.2a2.6,2.6,0,0,0,2.6-2.66l-.19-8.1a4.81,4.81,0,0,0-4.68-4.77Z" style="fill:#0a5e7f"/><path d="M133.55,118.66a5.05,5.05,0,1,0-4.58-4.88A4.81,4.81,0,0,0,133.55,118.66Z" style="fill:#f7d443;stroke:#0a5e7f;stroke-linecap:round;stroke-linejoin:round;stroke-width:1.5px"/><path d="M105.75,133.33l-.18-8.1a3.3,3.3,0,0,0-3.19-3.31h-.51a1,1,0,0,0-.8.42l-3.36,4.77-.38-3.5.58-1c.09-.15,0-.34-.26-.34h-2.2c-.21,0-.35.19-.25.34l.57,1-.38,3.5L92,122.34a1,1,0,0,0-.8-.42h-.51a3.3,3.3,0,0,0-3.18,3.31l-.19,8.1a1.11,1.11,0,0,0,1.1,1.12h16.2A1.11,1.11,0,0,0,105.75,133.33Z" style="fill:#0092d7"/><path d="M102.38,121.92a3.3,3.3,0,0,1,3.19,3.31l.18,8.1a1.11,1.11,0,0,1-1.1,1.12H88.45a1.11,1.11,0,0,1-1.1-1.12l.19-8.1a3.3,3.3,0,0,1,3.18-3.31h.51a1,1,0,0,1,.8.42l3.36,4.77.38-3.5-.57-1c-.1-.15,0-.34.25-.34h2.2c.21,0,.35.19.26.34l-.58,1,.38,3.5,3.36-4.77a1,1,0,0,1,.8-.42h.51m0-1.5h-.51a2.48,2.48,0,0,0-2,1l-.47.66a1.65,1.65,0,0,0-.16-.42,1.81,1.81,0,0,0-1.57-.9h-2.2a1.79,1.79,0,0,0-1.56.9,1.85,1.85,0,0,0-.17.42l-.46-.65a2.48,2.48,0,0,0-2-1.06h-.51A4.81,4.81,0,0,0,86,125.19l-.19,8.1a2.64,2.64,0,0,0,.75,1.88,2.58,2.58,0,0,0,1.85.78h16.2a2.6,2.6,0,0,0,2.6-2.66l-.19-8.1a4.81,4.81,0,0,0-4.68-4.77Z" style="fill:#0a5e7f"/><path d="M96.55,118.66A5.05,5.05,0,1,0,92,113.78,4.81,4.81,0,0,0,96.55,118.66Z" style="fill:#0092d7;stroke:#0a5e7f;stroke-linecap:round;stroke-linejoin:round;stroke-width:1.5px"/><path d="M124.75,97.33l-.18-8.1a3.3,3.3,0,0,0-3.19-3.31h-.51a1,1,0,0,0-.8.42l-3.36,4.77-.38-3.5.58-1c.09-.15,0-.34-.26-.34h-2.2c-.21,0-.35.19-.25.34l.57,1-.38,3.5L111,86.34a1,1,0,0,0-.8-.42h-.51a3.3,3.3,0,0,0-3.18,3.31l-.19,8.1a1.11,1.11,0,0,0,1.1,1.12h16.2A1.11,1.11,0,0,0,124.75,97.33Z" style="fill:#f8a642"/><path d="M107.45,99.2a1.86,1.86,0,0,1-1.85-1.89l.19-8.1a4.05,4.05,0,0,1,3.93-4h.51a1.7,1.7,0,0,1,1.41.74l2.22,3.14.13-1.27-.44-.75a.93.93,0,0,1,0-1,1,1,0,0,1,.91-.52h2.2a1,1,0,0,1,.91.52.94.94,0,0,1,0,1l-.45.74.14,1.27,2.22-3.14a1.73,1.73,0,0,1,1.41-.74h.51a4.07,4.07,0,0,1,3.94,4l.18,8.1a1.86,1.86,0,0,1-1.85,1.89Z" style="fill:#f7d443"/><path d="M121.38,85.92a3.3,3.3,0,0,1,3.19,3.31l.18,8.1a1.11,1.11,0,0,1-1.1,1.12h-16.2a1.11,1.11,0,0,1-1.1-1.12l.19-8.1a3.3,3.3,0,0,1,3.18-3.31h.51a1,1,0,0,1,.8.42l3.36,4.77.38-3.5-.57-1c-.1-.15,0-.34.25-.34h2.2c.21,0,.35.19.26.34l-.58,1,.38,3.5,3.36-4.77a1,1,0,0,1,.8-.42h.51m0-1.5h-.51a2.48,2.48,0,0,0-2,1l-.47.66a1.65,1.65,0,0,0-.16-.42,1.81,1.81,0,0,0-1.57-.9h-2.2a1.79,1.79,0,0,0-1.56.9,1.85,1.85,0,0,0-.17.42l-.46-.65a2.48,2.48,0,0,0-2-1.06h-.51A4.81,4.81,0,0,0,105,89.19l-.19,8.1a2.64,2.64,0,0,0,.75,1.88,2.58,2.58,0,0,0,1.85.78h16.2a2.6,2.6,0,0,0,2.6-2.66l-.19-8.1a4.81,4.81,0,0,0-4.68-4.77Z" style="fill:#0a5e7f"/><path d="M115.55,82.66A5.05,5.05,0,1,0,111,77.78,4.81,4.81,0,0,0,115.55,82.66Z" style="fill:#f7d443;stroke:#0a5e7f;stroke-linecap:round;stroke-linejoin:round;stroke-width:1.5px"/></svg>