<svg xmlns="http://www.w3.org/2000/svg" viewBox="0 0 151 195"><title>img_about_02</title><path d="M151,75.5C151,117.2,75.5,195,75.5,195S0,117.2,0,75.5a75.5,75.5,0,0,1,151,0Z" style="fill:#fff"/><path d="M120.41,71.44V48.83a4.38,4.38,0,0,0-4.22-4.54H31.31a4.36,4.36,0,0,0-4.2,4.54V93.11H120Z" style="fill:#f7d443"/><path d="M132.75,88.82a19.21,19.21,0,1,1-19.34-19.08A19.21,19.21,0,0,1,132.75,88.82Z" style="fill:#fff"/><path d="M60,113.29a69.35,69.35,0,0,0,2.55-7.93" style="fill:none;stroke:#0a5e7f;stroke-linecap:round;stroke-linejoin:round;stroke-width:1.94213327105264px"/><path d="M85,105.35a69.59,69.59,0,0,0,2.55,7.94" style="fill:none;stroke:#0a5e7f;stroke-linecap:round;stroke-linejoin:round;stroke-width:1.94213327105264px"/><path d="M103.54,105.37h-76c-2.49,0-4.78-1.35-4.78-3v-5.8H95.81" style="fill:#0092d7"/><path d="M103.54,105.37h-76c-2.49,0-4.78-1.35-4.78-3v-5.8H95.81" style="fill:none;stroke:#0a5e7f;stroke-linecap:round;stroke-linejoin:round;stroke-width:1.94213327105264px"/><path d="M94.28,96.59H22.75V45.5a5.1,5.1,0,0,1,4.78-5.24H120c2.5,0,4.51,2.3,4.51,5.24V73.17" style="fill:none;stroke:#0a5e7f;stroke-linecap:round;stroke-linejoin:round;stroke-width:1.94213327105264px"/><path d="M93.86,92.68H27.11V48.39a4.36,4.36,0,0,1,4.2-4.53h84.88a4.37,4.37,0,0,1,4.22,4.53V71" style="fill:none;stroke:#0a5e7f;stroke-linecap:round;stroke-linejoin:round;stroke-width:1.94213327105264px"/><path d="M76.35,101.51a2.4,2.4,0,1,1-2.4-2.4A2.41,2.41,0,0,1,76.35,101.51Z" style="fill:none;stroke:#0a5e7f;stroke-linecap:round;stroke-linejoin:round;stroke-width:1.94213327105264px"/><path d="M132.75,88.82a19.21,19.21,0,1,1-19.34-19.08A19.21,19.21,0,0,1,132.75,88.82Z" style="fill:none;stroke:#242424;stroke-linecap:round;stroke-miterlimit:10;stroke-width:2.10672806923309px"/><path d="M113.41,69.74a19.19,19.19,0,0,0-8.66,2.14A19.21,19.21,0,0,1,118,107.64a19.21,19.21,0,0,0-4.58-37.9Z" style="fill:#cdcdce"/><path d="M132.75,88.82a19.21,19.21,0,1,1-19.34-19.08A19.21,19.21,0,0,1,132.75,88.82Z" style="fill:none;stroke:#0a5e7f;stroke-linecap:round;stroke-linejoin:round;stroke-width:1.94213327105264px"/><path d="M128.16,86.27a15.56,15.56,0,0,1,.24,2.58,14.86,14.86,0,0,1-2,7.49" style="fill:none;stroke:#0a5e7f;stroke-linecap:round;stroke-linejoin:round;stroke-width:1.94213327105264px"/><path d="M117.22,74.55a14.9,14.9,0,0,1,9.52,7.56" style="fill:none;stroke:#0a5e7f;stroke-linecap:round;stroke-linejoin:round;stroke-width:1.94213327105264px"/><polyline points="111.5 108 111.5 108.05 111.53 112.9" style="fill:none;stroke:#0a5e7f;stroke-linecap:round;stroke-linejoin:round;stroke-width:1.94213327105264px"/><polyline points="115.87 112.87 115.84 108.02 115.84 107.97" style="fill:none;stroke:#0a5e7f;stroke-linecap:round;stroke-linejoin:round;stroke-width:1.94213327105264px"/><path d="M113.88,134.05h0a3.79,3.79,0,0,1-3.81-3.76l-.13-16a1.32,1.32,0,0,1,1.31-1.34l4.91,0a1.32,1.32,0,0,1,1.34,1.31l.13,16.06A3.78,3.78,0,0,1,113.88,134.05Z" style="fill:#f7d443"/><path d="M113.88,134.05h0a3.79,3.79,0,0,1-3.81-3.76l-.13-16a1.32,1.32,0,0,1,1.31-1.34l4.91,0a1.32,1.32,0,0,1,1.34,1.31l.13,16.06A3.78,3.78,0,0,1,113.88,134.05Z" style="fill:none;stroke:#0a5e7f;stroke-linecap:round;stroke-linejoin:round;stroke-width:1.94213327105264px"/><line x1="110.06" y1="130.22" x2="116.92" y2="130.17" style="fill:none;stroke:#0a5e7f;stroke-linecap:round;stroke-linejoin:round;stroke-width:1.94213327105264px"/><rect x="42.6" y="50.57" width="7.82" height="32.17" style="fill:#0092d7"/><rect x="42.6" y="50.57" width="7.82" height="32.17" style="fill:none;stroke:#0a5e7f;stroke-linecap:round;stroke-linejoin:round;stroke-width:1.94213327105264px"/><rect x="53.44" y="64.08" width="7.82" height="18.66" style="fill:#cdcdce"/><rect x="53.44" y="64.08" width="7.82" height="18.66" style="fill:none;stroke:#0a5e7f;stroke-linecap:round;stroke-linejoin:round;stroke-width:1.94213327105264px"/><polyline points="67.25 83.09 67.34 83.09 64.46 83.09 64.46 73.24 72.39 73.24 72.39 74.37 72.39 74.53" style="fill:none;stroke:#242424;stroke-linecap:round;stroke-miterlimit:10;stroke-width:2.10672806923309px"/><polyline points="67.25 83.09 67.34 83.09 64.46 83.09 64.46 73.24 72.39 73.24 72.39 74.37 72.39 74.53" style="fill:none;stroke:#0a5e7f;stroke-linecap:round;stroke-linejoin:round;stroke-width:1.94213327105264px"/><line x1="72.42" y1="79.14" x2="72.42" y2="79.14" style="fill:none;stroke:#242424;stroke-linecap:round;stroke-miterlimit:10;stroke-width:2.45784941410527px"/><line x1="91.08" y1="83.1" x2="40.9" y2="83.1" style="fill:none;stroke:#0a5e7f;stroke-linecap:round;stroke-linejoin:round;stroke-width:1.94213327105264px"/><line x1="53.65" y1="113.29" x2="95.74" y2="113.29" style="fill:none;stroke:#0a5e7f;stroke-linecap:round;stroke-linejoin:round;stroke-width:1.94213327105264px"/><rect x="79.1" y="64.08" width="7.82" height="18.66" style="fill:#cdcdce;stroke:#0a5e7f;stroke-linecap:round;stroke-linejoin:round;stroke-width:1.94213327105264px"/><path d="M82.31,81.54A7.54,7.54,0,1,1,74.78,74,7.54,7.54,0,0,1,82.31,81.54Z" style="fill:#0092d7"/><path d="M82.31,81.54A7.54,7.54,0,1,1,74.78,74,7.54,7.54,0,0,1,82.31,81.54Z" style="fill:none;stroke:#0a5e7f;stroke-linecap:round;stroke-linejoin:round;stroke-width:1.94213327105264px"/><polyline points="76.27 84.14 78.17 80.07 74.28 78.26" style="fill:none;stroke:#fff;stroke-linecap:round;stroke-miterlimit:10;stroke-width:1.942px"/><line x1="70.66" y1="82.49" x2="77.83" y2="79.97" style="fill:none;stroke:#fff;stroke-linecap:round;stroke-miterlimit:10;stroke-width:1.942px"/></svg>